<?xml version="1.0" encoding="UTF-8" standalone="no"?>
<!-- Created with Inkscape (http://www.inkscape.org/) -->

<svg
   width="477.50281"
   height="246.58344"
   viewBox="0 0 126.33928 65.241869"
   version="1.1"
   id="svg5"
   inkscape:version="1.1 (c4e8f9e, 2021-05-24)"
   sodipodi:docname="tade_logo.svg"
   inkscape:export-xdpi="174.04951"
   inkscape:export-ydpi="174.04951"
   xmlns:inkscape="http://www.inkscape.org/namespaces/inkscape"
   xmlns:sodipodi="http://sodipodi.sourceforge.net/DTD/sodipodi-0.dtd"
   xmlns="http://www.w3.org/2000/svg"
   xmlns:svg="http://www.w3.org/2000/svg">
  <sodipodi:namedview
     id="namedview7"
     pagecolor="#ffffff"
     bordercolor="#666666"
     borderopacity="1.0"
     inkscape:pageshadow="2"
     inkscape:pageopacity="0.0"
     inkscape:pagecheckerboard="0"
     inkscape:document-units="px"
     showgrid="false"
     showguides="false"
     inkscape:guide-bbox="true"
     inkscape:zoom="0.8515625"
     inkscape:cx="85.137615"
     inkscape:cy="213.72477"
     inkscape:window-width="1920"
     inkscape:window-height="1080"
     inkscape:window-x="0"
     inkscape:window-y="0"
     inkscape:window-maximized="1"
     inkscape:current-layer="g130465">
    <sodipodi:guide
       position="14.447706,30.44309"
       orientation="1,0"
       id="guide61613" />
    <sodipodi:guide
       position="111.85321,9.6259649"
       orientation="1,0"
       id="guide62761" />
    <sodipodi:guide
       position="8.2794178,15.443562"
       orientation="0,-1"
       id="guide115407" />
    <sodipodi:guide
       position="1.677167,6.0476935"
       orientation="0,-1"
       id="guide115819" />
  </sodipodi:namedview>
  <defs
     id="defs2" />
  <g
     inkscape:label="Layer 1"
     inkscape:groupmode="layer"
     id="layer1"
     transform="translate(-0.16791552,-28.819994)"
     style="display:inline"
     sodipodi:insensitive="true">
    <text
       xml:space="preserve"
       style="font-style:normal;font-weight:normal;font-size:53.9189px;line-height:1.25;font-family:sans-serif;letter-spacing:0px;word-spacing:0px;writing-mode:lr-tb;direction:ltr;fill:#000000;fill-opacity:0.000278189;stroke:none;stroke-width:1.34798"
       x="-6.3023524"
       y="77.886192"
       id="text1860"><tspan
         sodipodi:role="line"
         id="tspan1858"
         style="font-style:normal;font-variant:normal;font-weight:normal;font-stretch:normal;font-size:53.9189px;font-family:'GFS Galatea';-inkscape-font-specification:'GFS Galatea, Normal';font-variant-ligatures:normal;font-variant-caps:normal;font-variant-numeric:normal;font-variant-east-asian:normal;fill:#000000;fill-opacity:0.000278189;stroke-width:1.34798"
         x="-6.3023524"
         y="77.886192"><tspan
           style="font-style:normal;font-variant:normal;font-weight:bold;font-stretch:normal;font-family:'GFS Galatea';-inkscape-font-specification:'GFS Galatea Bold';fill:#000000;fill-opacity:0.000278189;stroke-width:1.34798"
           id="tspan15777">[</tspan><tspan
           style="letter-spacing:-2.71727px;fill:#000000;fill-opacity:0.000278189"
           id="tspan39583">t</tspan><tspan
           id="tspan51607"
           style="letter-spacing:-3.09033px;fill:#000000;fill-opacity:0.000278189">á</tspan><tspan
           id="tspan55767"
           style="letter-spacing:-1.90235px;fill:#000000;fill-opacity:0.000278189">δ</tspan><tspan
           id="tspan64889"
           style="letter-spacing:-1.23296px;fill:#000000;fill-opacity:0.000278189">e</tspan><tspan
           style="font-style:normal;font-variant:normal;font-weight:bold;font-stretch:normal;font-family:'GFS Galatea';-inkscape-font-specification:'GFS Galatea Bold';letter-spacing:-1.23296px;fill:#000000;fill-opacity:0.000278189;stroke-width:1.34798"
           id="tspan19383">]</tspan></tspan></text>
    <text
       xml:space="preserve"
       style="font-style:normal;font-variant:normal;font-weight:600;font-stretch:normal;font-size:6.54672px;line-height:1.25;font-family:'Fira Sans';-inkscape-font-specification:'Fira Sans Semi-Bold';font-variant-ligatures:normal;font-variant-caps:normal;font-variant-numeric:normal;font-variant-east-asian:normal;letter-spacing:0px;word-spacing:0px;writing-mode:lr-tb;direction:ltr;fill:#000000;fill-opacity:0.000278189;stroke:none;stroke-width:0.163669"
       x="14.376471"
       y="86.608414"
       id="text1860-7"><tspan
         sodipodi:role="line"
         id="tspan1858-3"
         style="font-style:normal;font-variant:normal;font-weight:600;font-stretch:normal;font-size:6.54672px;font-family:'Fira Sans';-inkscape-font-specification:'Fira Sans Semi-Bold';font-variant-ligatures:normal;font-variant-caps:normal;font-variant-numeric:normal;font-variant-east-asian:normal;fill:#000000;fill-opacity:0.000278189;stroke-width:0.163669"
         x="14.376471"
         y="86.608414"><tspan
   style="font-style:normal;font-variant:normal;font-weight:600;font-stretch:normal;font-size:6.54672px;font-family:'Fira Sans';-inkscape-font-specification:'Fira Sans Semi-Bold';font-variant-ligatures:normal;font-variant-caps:normal;font-variant-numeric:normal;font-variant-east-asian:normal;letter-spacing:-0.319125px;fill:#000000;fill-opacity:0.000278189;stroke-width:0.163669"
   id="tspan73053">w</tspan><tspan
   id="tspan74147"
   style="font-style:normal;font-variant:normal;font-weight:600;font-stretch:normal;font-size:6.54672px;font-family:'Fira Sans';-inkscape-font-specification:'Fira Sans Semi-Bold';font-variant-ligatures:normal;font-variant-caps:normal;font-variant-numeric:normal;font-variant-east-asian:normal;letter-spacing:-0.364254px;fill:#000000;fill-opacity:0.000278189;stroke-width:0.163669">eb</tspan>/<tspan
   style="font-style:normal;font-variant:normal;font-weight:600;font-stretch:normal;font-size:6.54672px;font-family:'Fira Sans';-inkscape-font-specification:'Fira Sans Semi-Bold';font-variant-ligatures:normal;font-variant-caps:normal;font-variant-numeric:normal;font-variant-east-asian:normal;letter-spacing:-0.406159px;fill:#000000;fill-opacity:0.000278189;stroke-width:0.163669"
   id="tspan83289">m</tspan>aili<tspan
   style="font-style:normal;font-variant:normal;font-weight:600;font-stretch:normal;font-size:6.54672px;font-family:'Fira Sans';-inkscape-font-specification:'Fira Sans Semi-Bold';font-variant-ligatures:normal;font-variant-caps:normal;font-variant-numeric:normal;font-variant-east-asian:normal;letter-spacing:-0.344913px;fill:#000000;fill-opacity:0.000278189;stroke-width:0.163669"
   id="tspan86417">n</tspan>g list/nntp <tspan
   style="font-style:normal;font-variant:normal;font-weight:600;font-stretch:normal;font-size:6.54672px;font-family:'Fira Sans';-inkscape-font-specification:'Fira Sans Semi-Bold';font-variant-ligatures:normal;font-variant-caps:normal;font-variant-numeric:normal;font-variant-east-asian:normal;letter-spacing:-0.0483524px;fill:#000000;fill-opacity:0.000278189;stroke-width:0.163669"
   id="tspan92077">d</tspan>i<tspan
   style="font-style:normal;font-variant:normal;font-weight:600;font-stretch:normal;font-size:6.54672px;font-family:'Fira Sans';-inkscape-font-specification:'Fira Sans Semi-Bold';font-variant-ligatures:normal;font-variant-caps:normal;font-variant-numeric:normal;font-variant-east-asian:normal;letter-spacing:-0.273997px;fill:#000000;fill-opacity:0.000278189;stroke-width:0.163669"
   id="tspan95567">s</tspan><tspan
   style="font-style:normal;font-variant:normal;font-weight:600;font-stretch:normal;font-size:6.54672px;font-family:'Fira Sans';-inkscape-font-specification:'Fira Sans Semi-Bold';font-variant-ligatures:normal;font-variant-caps:normal;font-variant-numeric:normal;font-variant-east-asian:normal;letter-spacing:-0.20308px;fill:#000000;fill-opacity:0.000278189;stroke-width:0.163669"
   id="tspan97329">c</tspan><tspan
   style="font-style:normal;font-variant:normal;font-weight:600;font-stretch:normal;font-size:6.54672px;font-family:'Fira Sans';-inkscape-font-specification:'Fira Sans Semi-Bold';font-variant-ligatures:normal;font-variant-caps:normal;font-variant-numeric:normal;font-variant-east-asian:normal;letter-spacing:-0.132163px;fill:#000000;fill-opacity:0.000278189;stroke-width:0.163669"
   id="tspan99587">u</tspan><tspan
   style="font-style:normal;font-variant:normal;font-weight:600;font-stretch:normal;font-size:6.54672px;font-family:'Fira Sans';-inkscape-font-specification:'Fira Sans Semi-Bold';font-variant-ligatures:normal;font-variant-caps:normal;font-variant-numeric:normal;font-variant-east-asian:normal;letter-spacing:-0.273997px;fill:#000000;fill-opacity:0.000278189;stroke-width:0.163669"
   id="tspan100875">ss</tspan><tspan
   id="tspan106795"
   style="font-style:normal;font-variant:normal;font-weight:600;font-stretch:normal;font-size:6.54672px;font-family:'Fira Sans';-inkscape-font-specification:'Fira Sans Semi-Bold';font-variant-ligatures:normal;font-variant-caps:normal;font-variant-numeric:normal;font-variant-east-asian:normal;letter-spacing:-0.444841px;fill:#000000;fill-opacity:0.000278189;stroke-width:0.163669">i</tspan><tspan
   style="font-style:normal;font-variant:normal;font-weight:600;font-stretch:normal;font-size:6.54672px;font-family:'Fira Sans';-inkscape-font-specification:'Fira Sans Semi-Bold';font-variant-ligatures:normal;font-variant-caps:normal;font-variant-numeric:normal;font-variant-east-asian:normal;letter-spacing:-0.306231px;fill:#000000;fill-opacity:0.000278189;stroke-width:0.163669"
   id="tspan67081">o</tspan><tspan
   style="font-style:normal;font-variant:normal;font-weight:600;font-stretch:normal;font-size:6.54672px;font-family:'Fira Sans';-inkscape-font-specification:'Fira Sans Semi-Bold';font-variant-ligatures:normal;font-variant-caps:normal;font-variant-numeric:normal;font-variant-east-asian:normal;letter-spacing:-0.20308px;fill:#000000;fill-opacity:0.000278189;stroke-width:0.163669"
   id="tspan106801">n</tspan>s</tspan></text>
  </g>
  <g
     inkscape:label="Layer 1 copy"
     inkscape:groupmode="layer"
     id="g130465"
     transform="translate(-0.16791552,-28.819994)"
     style="display:inline">
    <g
       aria-label="[táδe]"
       id="text130435"
       style="font-size:53.9189px;line-height:1.25;letter-spacing:0px;word-spacing:0px;stroke-width:1.34798">
      <path
         d="m 0.16791552,30.97675 v 60.928356 c 0,1.509729 0.64702679,2.156756 2.15675598,2.156756 H 12.569262 c 0.754865,0 1.078378,-0.323513 1.078378,-1.078378 v -3.774323 c 0,-0.754864 -0.323513,-1.078378 -1.078378,-1.078378 H 6.368589 v -53.37971 h 6.200673 c 0.754865,0 1.078378,-0.323514 1.078378,-1.078378 v -3.774323 c 0,-0.754865 -0.323513,-1.078378 -1.078378,-1.078378 H 2.3246715 c -1.50972919,0 -2.15675598,0.647027 -2.15675598,2.156756 z"
         style="font-weight:bold;-inkscape-font-specification:'GFS Galatea Bold'"
         id="path130692" />
      <path
         d="m 18.176771,56.318633 v 12.401346 c 0,6.793782 2.372432,9.705402 6.685944,9.705402 4.36743,0 6.416349,-2.857701 6.416349,-6.685943 0,-2.642026 -0.539189,-3.396891 -1.50973,-3.396891 -0.754864,0 -1.240134,0.269595 -1.240134,1.294054 0,2.803782 -0.862703,4.690944 -2.588107,4.690944 -2.156756,0 -2.642026,-1.725405 -2.642026,-5.87716 V 56.318633 h 4.906619 c 0.48527,0 0.700946,-0.215676 0.700946,-0.700946 v -2.156756 c 0,-0.48527 -0.215676,-0.647027 -0.700946,-0.647027 h -4.906619 v -6.8477 c 0,-0.48527 -0.161757,-0.700946 -0.647027,-0.700946 h -1.887162 c -0.808783,0 -0.97054,0.269595 -0.97054,0.97054 0,4.852701 -0.05392,6.578106 -1.617567,6.578106 h -2.803783 c -0.48527,0 -0.647027,0.161757 -0.647027,0.647027 v 2.156756 c 0,0.48527 0.161757,0.700946 0.647027,0.700946 z"
         style="letter-spacing:-2.71727px"
         id="path130694" />
      <path
         d="m 40.531716,78.425381 c 2.749863,0 6.254592,-1.186215 8.195672,-4.151755 0.647027,2.695945 2.210675,4.151755 5.284052,4.151755 3.828242,0 5.337971,-2.857701 5.337971,-6.685943 0,-2.642026 -0.539189,-3.396891 -1.509729,-3.396891 -0.754864,0 -1.240134,0.269595 -1.240134,1.294054 0,2.803782 -0.323514,4.690944 -1.50973,4.690944 -1.078378,0 -1.563648,-1.186216 -1.563648,-4.259593 v -8.519186 c 0,-6.092836 -3.39689,-9.274051 -9.705402,-9.274051 -4.798782,0 -9.489726,2.857702 -9.489726,6.901619 0,1.887162 1.240135,3.019459 2.857702,3.019459 1.617567,0 2.642026,-1.02446 2.642026,-2.642027 0,-0.97054 -0.377432,-1.887161 -1.563648,-2.749863 1.078378,-1.024459 2.857701,-1.401892 4.798782,-1.401892 3.504728,0 5.337971,1.994999 5.337971,5.607566 v 2.534188 c -0.700946,-0.05392 -1.401892,-0.05392 -2.102837,-0.05392 -7.171214,0 -13.425806,2.534188 -13.425806,8.35743 0,3.989998 2.642026,6.578105 7.656484,6.578105 z m 1.833242,-3.504728 c -2.749864,0 -4.097836,-2.048918 -4.097836,-3.93608 0,-2.857701 2.642026,-4.637025 7.656483,-4.637025 0.754865,0 1.617567,0 2.48027,0.107838 v 2.965539 c 0,3.504729 -3.396891,5.499728 -6.038917,5.499728 z M 36.541717,46.343636 c 0,0.754865 0.593108,1.186216 1.078378,1.078378 L 50.291036,44.18688 c 0.754865,-0.161757 1.078378,-0.431351 1.078378,-1.078378 v -3.504728 c 0,-0.700946 -0.593108,-0.754865 -1.078378,-0.539189 l -12.670941,5.931079 c -0.700946,0.323513 -1.078378,0.539189 -1.078378,1.347972 z"
         style="letter-spacing:-3.09033px"
         id="path130696" />
      <path
         d="m 62.190118,43.917286 c 0,4.583106 3.39689,6.416349 7.494727,9.004456 -6.955538,2.857702 -9.112294,7.872159 -9.112294,13.479725 0,7.656483 5.984998,12.023914 11.916077,12.023914 7.386889,0 12.509184,-4.852701 12.509184,-13.102292 0,-14.558103 -17.254048,-15.420806 -17.254048,-21.513641 0,-1.725405 1.563649,-3.828242 5.445809,-3.828242 2.857702,0 5.230134,1.186216 6.901619,2.42635 0.377433,0.323514 0.700946,0.485271 0.970541,0.485271 0.754864,0 1.887161,-1.50973 1.887161,-2.318513 0,-0.539189 -0.431351,-0.916621 -0.862702,-1.240135 -2.102837,-1.617567 -4.90662,-2.965539 -8.950538,-2.965539 -6.36243,0 -10.945536,3.289053 -10.945536,7.548646 z m 11.322969,30.625935 c -4.637026,0 -7.602565,-5.176215 -7.602565,-9.705402 0,-3.774323 1.509729,-8.465268 6.308511,-9.543646 3.666485,1.240135 7.279052,5.445809 7.279052,11.107294 0,4.367431 -1.671486,8.141754 -5.984998,8.141754 z"
         style="letter-spacing:-1.90235px"
         id="path130698" />
      <path
         d="m 111.0254,66.024034 c 0.8627,0 1.07838,-0.647026 1.07838,-1.347972 0,-7.009457 -4.79878,-12.401347 -12.239591,-12.401347 -6.793781,0 -12.455266,5.284052 -12.455266,13.048374 0,8.30351 5.607566,13.102292 12.455266,13.102292 6.416351,0 10.568101,-3.073377 11.754321,-8.30351 0.10784,-0.48527 -0.16176,-0.862703 -0.80878,-0.862703 H 107.305 c -0.91662,0 -0.86271,1.240135 -1.18622,1.995 -0.80878,1.994999 -2.96554,3.936079 -5.66148,3.936079 -5.931082,0 -7.279055,-5.122295 -7.386892,-9.166213 z M 99.756351,55.779444 c 3.989999,0 5.984999,3.504728 6.632029,7.009456 H 93.232164 c 0.593108,-3.666485 2.534189,-7.009456 6.524187,-7.009456 z"
         style="letter-spacing:-1.23296px"
         id="path130700" />
      <path
         d="m 113.02747,92.983484 c 0,0.754865 0.32352,1.078378 1.07838,1.078378 h 10.24459 c 1.50973,0 2.15676,-0.647027 2.15676,-2.156756 V 30.97675 c 0,-1.509729 -0.64703,-2.156756 -2.15676,-2.156756 h -10.24459 c -0.75486,0 -1.07838,0.323513 -1.07838,1.078378 v 3.774323 c 0,0.754864 0.32352,1.078378 1.07838,1.078378 h 6.20068 v 53.37971 h -6.20068 c -0.75486,0 -1.07838,0.323514 -1.07838,1.078378 z"
         style="font-weight:bold;-inkscape-font-specification:'GFS Galatea Bold';letter-spacing:-1.23296px"
         id="path130702" />
    </g>
    <g
       aria-label="web/mailing list/nntp discussions"
       id="text130463"
       style="font-weight:600;font-size:6.54672px;line-height:1.25;font-family:'Fira Sans';-inkscape-font-specification:'Fira Sans Semi-Bold';letter-spacing:0px;word-spacing:0px;stroke-width:0.163669"
       transform="matrix(0.92549121,0,0,0.92549121,5.1154297,7.1143626)">
      <path
         d="m 19.175216,83.138652 -0.739779,3.469762 h -1.132583 l -0.49755,-2.638328 -0.497551,2.638328 h -1.119489 l -0.75942,-3.469762 h 0.936181 l 0.425537,2.782356 0.576111,-2.782356 h 0.929635 l 0.517191,2.782356 0.471363,-2.782356 z"
         style="letter-spacing:-0.319125px"
         id="path130629" />
      <path
         d="m 22.299661,84.794972 q 0,0.06547 -0.01964,0.36007 h -2.166964 q 0.04583,0.471364 0.255322,0.667765 0.209495,0.196402 0.569565,0.196402 0.222588,0 0.41899,-0.07201 0.196402,-0.07201 0.425537,-0.229135 l 0.386256,0.523737 q -0.582658,0.471364 -1.31589,0.471364 -0.81834,0 -1.256971,-0.491004 -0.43863,-0.491004 -0.43863,-1.328984 0,-0.530284 0.183308,-0.949274 0.189855,-0.425537 0.543378,-0.667766 0.36007,-0.242228 0.851074,-0.242228 0.739779,0 1.152222,0.464817 0.412444,0.464817 0.412444,1.29625 z m -0.923088,-0.261869 q 0,-0.864167 -0.621938,-0.864167 -0.288056,0 -0.451724,0.216042 -0.157121,0.209495 -0.189855,0.687406 h 1.263517 z"
         style="letter-spacing:-0.364254px"
         id="path130631" />
      <path
         d="m 24.488619,83.033905 q 0.608845,0 0.942728,0.484457 0.340429,0.484457 0.340429,1.355171 0,0.536831 -0.170214,0.955821 -0.163668,0.412443 -0.477911,0.648125 -0.307696,0.235682 -0.726686,0.235682 -0.569565,0 -0.909994,-0.445177 l -0.05237,0.34043 h -0.824886 v -4.85112 l 0.929634,-0.104747 v 1.859268 q 0.163668,-0.222588 0.412443,-0.346976 0.248776,-0.130934 0.536831,-0.130934 z m -0.353523,2.991851 q 0.667766,0 0.667766,-1.152223 0,-0.635032 -0.163668,-0.890354 -0.157122,-0.261869 -0.458271,-0.261869 -0.373163,0 -0.641578,0.445177 v 1.486106 q 0.229135,0.373163 0.595751,0.373163 z"
         style="letter-spacing:-0.364254px"
         id="path130633" />
      <path
         d="m 27.757787,81.279384 0.805246,0.183308 -1.531932,5.865861 -0.811794,-0.189855 z"
         id="path130635" />
      <path
         d="m 33.302849,83.033905 q 0.412444,0 0.661219,0.281509 0.255322,0.281508 0.255322,0.765966 v 2.527034 h -0.929634 v -2.369913 q 0,-0.510644 -0.340429,-0.510644 -0.183309,0 -0.32079,0.117841 -0.137481,0.117841 -0.281509,0.366616 v 2.3961 h -0.929634 v -2.369913 q 0,-0.510644 -0.340429,-0.510644 -0.183309,0 -0.32079,0.124388 -0.137481,0.117841 -0.274962,0.360069 v 2.3961 h -0.929634 v -3.469762 h 0.805246 l 0.07201,0.432084 q 0.196402,-0.261869 0.438631,-0.39935 0.248775,-0.137481 0.569564,-0.137481 0.294603,0 0.510644,0.150574 0.216042,0.144028 0.314243,0.412443 0.216042,-0.281508 0.464817,-0.41899 0.255322,-0.144027 0.576111,-0.144027 z"
         style="letter-spacing:-0.406159px"
         id="path130637" />
      <path
         d="m 37.348458,85.646046 q 0,0.202948 0.05892,0.301149 0.05892,0.09165 0.196402,0.137481 l -0.196402,0.615392 q -0.307696,-0.02619 -0.504097,-0.144028 -0.189855,-0.117841 -0.294603,-0.366616 -0.340429,0.523737 -1.040928,0.523737 -0.517191,0 -0.824887,-0.294602 -0.301149,-0.301149 -0.301149,-0.77906 0,-0.569565 0.412443,-0.870714 0.412444,-0.301149 1.184957,-0.301149 h 0.39935 v -0.170214 q 0,-0.32079 -0.144028,-0.445177 -0.144028,-0.124388 -0.477911,-0.124388 -0.366616,0 -0.916541,0.183308 l -0.209495,-0.621938 q 0.648126,-0.255322 1.283158,-0.255322 0.707045,0 1.040928,0.307695 0.333883,0.30115 0.333883,0.903448 z m -1.525386,0.39935 q 0.392803,0 0.615392,-0.386257 v -0.661218 h -0.307696 q -0.752873,0 -0.752873,0.563017 0,0.229136 0.111294,0.36007 0.117841,0.124388 0.333883,0.124388 z"
         id="path130639" />
      <path
         d="m 39.207719,83.138652 v 3.469762 h -0.929634 v -3.469762 z m -0.471364,-1.787254 q 0.248776,0 0.405897,0.157121 0.163668,0.150574 0.163668,0.386256 0,0.235682 -0.163668,0.392803 -0.157121,0.150575 -0.405897,0.150575 -0.248775,0 -0.405896,-0.150575 -0.157121,-0.157121 -0.157121,-0.392803 0,-0.235682 0.157121,-0.386256 0.157121,-0.157121 0.405896,-0.157121 z"
         id="path130641" />
      <path
         d="m 40.988424,86.713161 q -0.425536,0 -0.661218,-0.242228 -0.235682,-0.248776 -0.235682,-0.700499 v -4.01314 l 0.929634,-0.104747 v 4.0917 q 0,0.229135 0.189855,0.229135 0.104747,0 0.183308,-0.03928 l 0.189855,0.661218 q -0.268416,0.117841 -0.595752,0.117841 z"
         id="path130643" />
      <path
         d="m 42.991718,83.138652 v 3.469762 h -0.929634 v -3.469762 z m -0.471364,-1.787254 q 0.248775,0 0.405897,0.157121 0.163668,0.150574 0.163668,0.386256 0,0.235682 -0.163668,0.392803 -0.157122,0.150575 -0.405897,0.150575 -0.248775,0 -0.405897,-0.150575 -0.157121,-0.157121 -0.157121,-0.392803 0,-0.235682 0.157121,-0.386256 0.157122,-0.157121 0.405897,-0.157121 z"
         id="path130645" />
      <path
         d="m 45.846085,83.033905 q 0.45827,0 0.713593,0.281509 Q 46.815,83.590376 46.815,84.08138 v 2.527034 h -0.929635 v -2.369913 q 0,-0.281509 -0.0982,-0.392803 -0.09166,-0.117841 -0.281509,-0.117841 -0.196402,0 -0.36007,0.124388 -0.157121,0.117841 -0.307696,0.360069 v 2.3961 h -0.929634 v -3.469762 h 0.805246 l 0.07201,0.43863 q 0.216042,-0.268415 0.471364,-0.405896 0.261869,-0.137481 0.589205,-0.137481 z"
         style="letter-spacing:-0.344913px"
         id="path130647" />
      <path
         d="m 50.457028,83.328507 q -0.340429,0.130934 -1.001648,0.130934 0.327336,0.144028 0.484458,0.36007 0.157121,0.209495 0.157121,0.530284 0,0.333883 -0.176762,0.602299 -0.170214,0.261868 -0.49755,0.412443 -0.32079,0.150574 -0.752873,0.150574 -0.229135,0 -0.405897,-0.04583 -0.130934,0.08511 -0.130934,0.229136 0,0.104747 0.07856,0.170214 0.08511,0.05892 0.32079,0.05892 h 0.530284 q 0.386257,0 0.674312,0.130934 0.294603,0.124388 0.451724,0.353523 0.163668,0.222589 0.163668,0.510644 0,0.530285 -0.458271,0.824887 -0.451723,0.301149 -1.309344,0.301149 -0.615391,0 -0.975461,-0.130934 -0.353523,-0.124388 -0.497551,-0.366617 -0.144027,-0.242228 -0.144027,-0.608845 h 0.831433 q 0,0.170215 0.06547,0.268416 0.06547,0.104747 0.235682,0.150574 0.176762,0.05237 0.504098,0.05237 0.451723,0 0.628485,-0.111294 0.183308,-0.111294 0.183308,-0.314243 0,-0.183308 -0.137481,-0.281509 -0.137481,-0.0982 -0.405897,-0.0982 h -0.510644 q -0.517191,0 -0.772513,-0.189855 -0.255322,-0.196402 -0.255322,-0.491004 0,-0.183308 0.104747,-0.353523 0.111295,-0.176762 0.30115,-0.294602 -0.32079,-0.176762 -0.471364,-0.412444 -0.144028,-0.242228 -0.144028,-0.576111 0,-0.37971 0.183308,-0.661219 0.189855,-0.288056 0.523738,-0.43863 0.340429,-0.157121 0.772513,-0.157121 0.536831,0.01309 0.883807,-0.09166 0.346976,-0.104747 0.739779,-0.327336 z m -1.833081,0.327336 q -0.261869,0 -0.41899,0.170215 -0.150575,0.163668 -0.150575,0.451723 0,0.294603 0.150575,0.464817 0.157121,0.170215 0.425537,0.170215 0.281508,0 0.425536,-0.163668 0.144028,-0.163668 0.144028,-0.484457 0,-0.608845 -0.576111,-0.608845 z"
         id="path130649" />
      <path
         d="m 53.376856,86.713161 q -0.425537,0 -0.661219,-0.242228 -0.235682,-0.248776 -0.235682,-0.700499 v -4.01314 l 0.929635,-0.104747 v 4.0917 q 0,0.229135 0.189854,0.229135 0.104748,0 0.183309,-0.03928 l 0.189855,0.661218 q -0.268416,0.117841 -0.595752,0.117841 z"
         id="path130651" />
      <path
         d="m 55.380147,83.138652 v 3.469762 h -0.929634 v -3.469762 z m -0.471363,-1.787254 q 0.248775,0 0.405896,0.157121 0.163668,0.150574 0.163668,0.386256 0,0.235682 -0.163668,0.392803 -0.157121,0.150575 -0.405896,0.150575 -0.248776,0 -0.405897,-0.150575 -0.157121,-0.157121 -0.157121,-0.392803 0,-0.235682 0.157121,-0.386256 0.157121,-0.157121 0.405897,-0.157121 z"
         id="path130653" />
      <path
         d="m 57.448908,83.033905 q 0.733233,0 1.256971,0.41899 l -0.353523,0.530284 q -0.438631,-0.274962 -0.864167,-0.274962 -0.229136,0 -0.353523,0.08511 -0.124388,0.08511 -0.124388,0.229135 0,0.104748 0.05237,0.176762 0.05892,0.07201 0.209495,0.137481 0.157121,0.06547 0.464817,0.157121 0.549924,0.150575 0.81834,0.405897 0.268415,0.248775 0.268415,0.687405 0,0.346977 -0.202948,0.602299 -0.196401,0.255322 -0.536831,0.392803 -0.340429,0.130934 -0.759419,0.130934 -0.438631,0 -0.7987,-0.130934 -0.36007,-0.137481 -0.615392,-0.373163 l 0.45827,-0.510644 q 0.438631,0.340429 0.929635,0.340429 0.261869,0 0.412443,-0.0982 0.157121,-0.104747 0.157121,-0.281509 0,-0.137481 -0.05892,-0.216041 -0.05892,-0.07856 -0.216042,-0.144028 -0.157121,-0.07201 -0.491004,-0.163668 -0.523737,-0.144028 -0.77906,-0.405897 -0.248775,-0.268415 -0.248775,-0.661219 0,-0.294602 0.170215,-0.530284 0.170215,-0.235682 0.47791,-0.366616 0.314243,-0.137481 0.726686,-0.137481 z"
         id="path130655" />
      <path
         d="m 61.507864,86.444746 q -0.189855,0.130934 -0.432084,0.196401 -0.235682,0.07201 -0.471363,0.07201 -0.536832,-0.0065 -0.811794,-0.307696 -0.274962,-0.301149 -0.274962,-0.883807 v -1.72833 H 59.00047 v -0.654672 h 0.517191 v -0.759419 l 0.929634,-0.111295 v 0.870714 h 0.7987 l -0.09165,0.654672 h -0.707046 v 1.708694 q 0,0.248775 0.08511,0.36007 0.08511,0.111294 0.261868,0.111294 0.176762,0 0.392804,-0.117841 z"
         id="path130657" />
      <path
         d="m 63.530794,81.279384 0.805247,0.183308 -1.531933,5.865861 -0.811793,-0.189855 z"
         id="path130659" />
      <path
         d="m 67.066008,83.033905 q 0.45827,0 0.713593,0.281509 0.255322,0.274962 0.255322,0.765966 v 2.527034 h -0.929635 v -2.369913 q 0,-0.281509 -0.0982,-0.392803 -0.09166,-0.117841 -0.281509,-0.117841 -0.196402,0 -0.36007,0.124388 -0.157121,0.117841 -0.307696,0.360069 v 2.3961 h -0.929634 v -3.469762 h 0.805246 l 0.07201,0.43863 q 0.216042,-0.268415 0.471364,-0.405896 0.261869,-0.137481 0.589205,-0.137481 z"
         id="path130661" />
      <path
         d="m 70.856551,83.033905 q 0.45827,0 0.713592,0.281509 0.255322,0.274962 0.255322,0.765966 v 2.527034 h -0.929634 v -2.369913 q 0,-0.281509 -0.0982,-0.392803 -0.09165,-0.117841 -0.281509,-0.117841 -0.196401,0 -0.360069,0.124388 -0.157122,0.117841 -0.307696,0.360069 v 2.3961 h -0.929634 v -3.469762 h 0.805246 l 0.07201,0.43863 q 0.216042,-0.268415 0.471364,-0.405896 0.261869,-0.137481 0.589205,-0.137481 z"
         id="path130663" />
      <path
         d="m 74.784574,86.444746 q -0.189855,0.130934 -0.432083,0.196401 -0.235682,0.07201 -0.471364,0.07201 -0.536831,-0.0065 -0.811793,-0.307696 -0.274963,-0.301149 -0.274963,-0.883807 V 83.79332 h -0.51719 v -0.654672 h 0.51719 v -0.759419 l 0.929635,-0.111295 v 0.870714 h 0.7987 l -0.09166,0.654672 h -0.707045 v 1.708694 q 0,0.248775 0.08511,0.36007 0.08511,0.111294 0.261869,0.111294 0.176761,0 0.392803,-0.117841 z"
         id="path130665" />
      <path
         d="m 77.069373,83.033905 q 0.654672,0 0.968915,0.484457 0.320789,0.47791 0.320789,1.348624 0,0.530284 -0.163668,0.949275 -0.163668,0.41899 -0.47791,0.661218 -0.307696,0.235682 -0.733233,0.235682 -0.530284,0 -0.85762,-0.373163 v 1.603947 l -0.929635,0.104747 v -4.91004 h 0.81834 l 0.04583,0.405897 q 0.196402,-0.255322 0.458271,-0.37971 0.268415,-0.130934 0.549924,-0.130934 z m -0.360069,2.985304 q 0.680859,0 0.680859,-1.145676 0,-0.628485 -0.150575,-0.890354 -0.150575,-0.261869 -0.45827,-0.261869 -0.196402,0 -0.366617,0.124388 -0.163668,0.117841 -0.288055,0.320789 v 1.512292 q 0.222588,0.34043 0.582658,0.34043 z"
         id="path130667" />
      <path
         d="m 83.701189,81.757294 v 4.85112 h -0.81834 l -0.05237,-0.425537 q -0.366616,0.530284 -0.995101,0.530284 -0.641579,0 -0.982008,-0.491004 -0.333883,-0.497551 -0.333883,-1.348624 0,-0.536831 0.170215,-0.949275 0.176761,-0.41899 0.497551,-0.654672 0.320789,-0.235681 0.739779,-0.235681 0.484457,0 0.844527,0.346976 v -1.728334 z m -1.590853,4.261915 q 0.202948,0 0.36007,-0.0982 0.157121,-0.104747 0.301149,-0.320789 v -1.551573 q -0.137481,-0.163668 -0.281509,-0.242228 -0.137481,-0.08511 -0.320789,-0.08511 -0.32079,0 -0.504098,0.281509 -0.176761,0.281509 -0.176761,0.870714 0,0.621938 0.157121,0.883807 0.163668,0.261869 0.464817,0.26187 z"
         style="letter-spacing:-0.0483524px"
         id="path130669" />
      <path
         d="m 85.499002,83.138652 v 3.469762 h -0.929634 v -3.469762 z m -0.471364,-1.787254 q 0.248776,0 0.405897,0.157121 0.163668,0.150574 0.163668,0.386256 0,0.235682 -0.163668,0.392803 -0.157121,0.150575 -0.405897,0.150575 -0.248775,0 -0.405897,-0.150575 -0.157121,-0.157121 -0.157121,-0.392803 0,-0.235682 0.157121,-0.386256 0.157122,-0.157121 0.405897,-0.157121 z"
         id="path130671" />
      <path
         d="m 87.567767,83.033905 q 0.733232,0 1.25697,0.41899 l -0.353523,0.530284 q -0.43863,-0.274962 -0.864167,-0.274962 -0.229135,0 -0.353523,0.08511 -0.124388,0.08511 -0.124388,0.229135 0,0.104748 0.05237,0.176762 0.05892,0.07201 0.209495,0.137481 0.157121,0.06547 0.464817,0.157121 0.549925,0.150575 0.81834,0.405897 0.268416,0.248775 0.268416,0.687405 0,0.346977 -0.202949,0.602299 -0.196401,0.255322 -0.536831,0.392803 -0.340429,0.130934 -0.759419,0.130934 -0.43863,0 -0.7987,-0.130934 -0.36007,-0.137481 -0.615392,-0.373163 l 0.458271,-0.510644 q 0.43863,0.340429 0.929634,0.340429 0.261869,0 0.412443,-0.0982 0.157122,-0.104747 0.157122,-0.281509 0,-0.137481 -0.05892,-0.216041 -0.05892,-0.07856 -0.216042,-0.144028 -0.157121,-0.07201 -0.491004,-0.163668 -0.523737,-0.144028 -0.779059,-0.405897 -0.248776,-0.268415 -0.248776,-0.661219 0,-0.294602 0.170215,-0.530284 0.170215,-0.235682 0.477911,-0.366616 0.314242,-0.137481 0.726686,-0.137481 z"
         style="letter-spacing:-0.273997px"
         id="path130673" />
      <path
         d="m 90.724239,83.033905 q 0.346976,0 0.621938,0.104747 0.281509,0.0982 0.530285,0.314243 l -0.405897,0.549924 q -0.170215,-0.130934 -0.333883,-0.189855 -0.157121,-0.05892 -0.346976,-0.05892 -0.739779,0 -0.739779,1.139129 0,0.576111 0.189855,0.824887 0.189854,0.248775 0.543377,0.248775 0.183308,0 0.333883,-0.05237 0.150575,-0.05892 0.353523,-0.189855 l 0.405897,0.582659 q -0.497551,0.405896 -1.13913,0.405896 -0.510644,0 -0.890354,-0.222588 -0.373163,-0.222589 -0.576111,-0.628485 -0.202948,-0.412444 -0.202948,-0.962368 0,-0.549925 0.202948,-0.968915 0.202948,-0.425537 0.576111,-0.661219 0.37971,-0.235681 0.877261,-0.235681 z"
         style="letter-spacing:-0.20308px"
         id="path130675" />
      <path
         d="M 95.044937,86.608414 H 94.23969 l -0.04583,-0.464817 q -0.183308,0.288055 -0.445177,0.432083 -0.261869,0.137481 -0.608845,0.137481 -0.471364,0 -0.720139,-0.281509 -0.248775,-0.288055 -0.248775,-0.7987 v -2.4943 h 0.929634 v 2.376459 q 0,0.274963 0.09165,0.392804 0.09165,0.111294 0.288056,0.111294 0.373163,0 0.635032,-0.451724 v -2.428833 h 0.929634 z"
         style="letter-spacing:-0.132163px"
         id="path130677" />
      <path
         d="m 96.981532,83.033905 q 0.733232,0 1.25697,0.41899 l -0.353523,0.530284 q -0.43863,-0.274962 -0.864167,-0.274962 -0.229135,0 -0.353523,0.08511 -0.124388,0.08511 -0.124388,0.229135 0,0.104748 0.05237,0.176762 0.05892,0.07201 0.209495,0.137481 0.157121,0.06547 0.464817,0.157121 0.549925,0.150575 0.81834,0.405897 0.268416,0.248775 0.268416,0.687405 0,0.346977 -0.202949,0.602299 -0.196401,0.255322 -0.536831,0.392803 -0.340429,0.130934 -0.759419,0.130934 -0.43863,0 -0.7987,-0.130934 -0.36007,-0.137481 -0.615392,-0.373163 l 0.458271,-0.510644 q 0.43863,0.340429 0.929634,0.340429 0.261869,0 0.412443,-0.0982 0.157122,-0.104747 0.157122,-0.281509 0,-0.137481 -0.05892,-0.216041 -0.05892,-0.07856 -0.216042,-0.144028 -0.157121,-0.07201 -0.491004,-0.163668 -0.523737,-0.144028 -0.779059,-0.405897 -0.248776,-0.268415 -0.248776,-0.661219 0,-0.294602 0.170215,-0.530284 0.170215,-0.235682 0.477911,-0.366616 0.314242,-0.137481 0.726686,-0.137481 z"
         style="letter-spacing:-0.273997px"
         id="path130679" />
      <path
         d="m 99.791018,83.033905 q 0.733232,0 1.256972,0.41899 l -0.35352,0.530284 q -0.43863,-0.274962 -0.864172,-0.274962 -0.229135,0 -0.353523,0.08511 -0.124387,0.08511 -0.124387,0.229135 0,0.104748 0.05237,0.176762 0.05892,0.07201 0.209496,0.137481 0.157121,0.06547 0.464816,0.157121 0.54993,0.150575 0.81834,0.405897 0.26842,0.248775 0.26842,0.687405 0,0.346977 -0.20295,0.602299 -0.1964,0.255322 -0.53683,0.392803 -0.34043,0.130934 -0.759423,0.130934 -0.43863,0 -0.7987,-0.130934 -0.360069,-0.137481 -0.615391,-0.373163 l 0.45827,-0.510644 q 0.43863,0.340429 0.929634,0.340429 0.261869,0 0.41245,-0.0982 0.15712,-0.104747 0.15712,-0.281509 0,-0.137481 -0.0589,-0.216041 -0.0589,-0.07856 -0.216047,-0.144028 -0.157121,-0.07201 -0.491004,-0.163668 -0.523738,-0.144028 -0.77906,-0.405897 -0.248775,-0.268415 -0.248775,-0.661219 0,-0.294602 0.170214,-0.530284 0.170215,-0.235682 0.477911,-0.366616 0.314243,-0.137481 0.726686,-0.137481 z"
         style="letter-spacing:-0.273997px"
         id="path130681" />
      <path
         d="m 102.4303,83.138652 v 3.469762 h -0.92963 v -3.469762 z m -0.47136,-1.787254 q 0.24877,0 0.40589,0.157121 0.16367,0.150574 0.16367,0.386256 0,0.235682 -0.16367,0.392803 -0.15712,0.150575 -0.40589,0.150575 -0.24878,0 -0.4059,-0.150575 -0.15712,-0.157121 -0.15712,-0.392803 0,-0.235682 0.15712,-0.386256 0.15712,-0.157121 0.4059,-0.157121 z"
         style="letter-spacing:-0.444841px"
         id="path130683" />
      <path
         d="m 104.36191,83.033905 q 0.77906,0 1.21769,0.491004 0.43863,0.484457 0.43863,1.348624 0,0.549924 -0.20295,0.968914 -0.1964,0.412444 -0.57611,0.641579 -0.37316,0.229135 -0.8838,0.229135 -0.77906,0 -1.22424,-0.484457 -0.43863,-0.491004 -0.43863,-1.355171 0,-0.549925 0.1964,-0.962368 0.20295,-0.41899 0.57611,-0.648125 0.37971,-0.229135 0.8969,-0.229135 z m 0,0.693952 q -0.35352,0 -0.53028,0.281509 -0.17022,0.274962 -0.17022,0.864167 0,0.589205 0.17022,0.870714 0.17676,0.274962 0.52374,0.274962 0.34697,0 0.51719,-0.274962 0.17676,-0.281509 0.17676,-0.870714 0,-0.589205 -0.17022,-0.864167 -0.17021,-0.281509 -0.51719,-0.281509 z"
         style="letter-spacing:-0.306231px"
         id="path130685" />
      <path
         d="m 108.35687,83.033905 q 0.45828,0 0.7136,0.281509 0.25532,0.274962 0.25532,0.765966 v 2.527034 h -0.92963 v -2.369913 q 0,-0.281509 -0.0982,-0.392803 -0.0917,-0.117841 -0.2815,-0.117841 -0.19641,0 -0.36007,0.124388 -0.15713,0.117841 -0.3077,0.360069 v 2.3961 h -0.92963 v -3.469762 h 0.80524 l 0.072,0.43863 q 0.21604,-0.268415 0.47136,-0.405896 0.26187,-0.137481 0.5892,-0.137481 z"
         style="letter-spacing:-0.20308px"
         id="path130687" />
      <path
         d="m 111.15873,83.033905 q 0.73323,0 1.25697,0.41899 l -0.35352,0.530284 q -0.43863,-0.274962 -0.86417,-0.274962 -0.22913,0 -0.35352,0.08511 -0.12439,0.08511 -0.12439,0.229135 0,0.104748 0.0524,0.176762 0.0589,0.07201 0.20949,0.137481 0.15712,0.06547 0.46482,0.157121 0.54992,0.150575 0.81834,0.405897 0.26841,0.248775 0.26841,0.687405 0,0.346977 -0.20295,0.602299 -0.1964,0.255322 -0.53683,0.392803 -0.34043,0.130934 -0.75942,0.130934 -0.43863,0 -0.7987,-0.130934 -0.36007,-0.137481 -0.61539,-0.373163 l 0.45827,-0.510644 q 0.43863,0.340429 0.92964,0.340429 0.26187,0 0.41244,-0.0982 0.15712,-0.104747 0.15712,-0.281509 0,-0.137481 -0.0589,-0.216041 -0.0589,-0.07856 -0.21604,-0.144028 -0.15712,-0.07201 -0.491,-0.163668 -0.52374,-0.144028 -0.77906,-0.405897 -0.24878,-0.268415 -0.24878,-0.661219 0,-0.294602 0.17022,-0.530284 0.17021,-0.235682 0.47791,-0.366616 0.31424,-0.137481 0.72668,-0.137481 z"
         id="path130689" />
    </g>
  </g>
</svg>
